<svg width="613" height="430" viewBox="0 0 613 430" fill="none" xmlns="http://www.w3.org/2000/svg">
<path d="M221.721 248.03C244.7 247.769 267.299 254.426 288.532 262.727C295.042 265.05 302.05 268.631 308.644 270.385C310.856 270.973 320.112 269.205 322.591 268.641C345.228 263.491 361.197 247.005 377.735 232.039C391.576 219.516 409.858 211.577 428.735 214.146C445.91 216.328 463.17 228.283 463.347 247.185C463.384 251.469 462.473 255.828 460.212 259.488C460.237 249.144 459.12 241.225 451.397 233.38C444.259 226.13 433.37 222.068 423.261 222.143C394.73 222.353 380.87 241.893 361.25 257.746C354.357 263.373 346.728 268.027 338.572 271.577C333.409 273.8 326.607 275.966 321.005 276.553C352.525 291.376 393.809 312.692 428.256 315.853C429.864 316.532 431.354 317.658 430.642 319.491C429.883 320.315 429.118 320.29 427.973 320.483C421.777 320.95 411.149 319.494 405.044 318.333C341.104 306.174 287.625 259.269 221.502 255.432C219.816 254.97 213.796 255.11 211.432 254.966C212.88 253.411 214.004 252.143 215.974 251.267L212.631 252.148L212.337 251.965C211.844 251.119 211.516 250.779 211.568 249.852C212.992 248.115 218.375 248.828 221.431 248.101L221.721 248.03Z" fill="#BF935D"/>
<path d="M298.831 0C299.363 0.162976 299.845 0.741732 300.026 1.25751C307.071 21.2168 304.741 41.5605 298.474 61.2919C296.651 60.4133 294.285 59.7194 292.332 59.0803C297.206 43.1962 298.977 26.8665 296.027 10.3959C274.899 21.9794 259.574 48.1023 253.519 70.69C251.662 77.617 250.437 85.4525 249.448 92.5922C245.995 86.4431 245.474 80.0824 245.475 73.2572C225.227 91.1501 218.595 119.879 216.219 145.577C215.059 158.128 213.946 172.739 210.554 184.672C206.642 198.557 199.312 211.239 189.235 221.557C188.651 222.156 188.056 222.745 187.451 223.322C174.94 235.384 158.819 243.008 141.56 245.024C138.563 245.392 135.202 245.81 132.194 245.738C135.094 244.558 139.978 243.436 143.285 242.338C152.666 239.249 161.487 234.664 169.406 228.761C190.051 213.4 201.487 190.934 204.928 165.736C206.49 154.296 206.917 142.828 208.678 131.356C212.087 109.143 220.211 86.734 236.332 70.5397C240.32 66.5325 243.374 64.2316 247.919 60.8735C250.127 55.6992 251.217 51.089 254.035 45.489C264.699 24.2974 278.955 11.7027 298.831 0Z" fill="#BF935D"/>
<path d="M78.7657 372.061C93.0674 369.528 106.709 379.087 109.216 393.399C111.724 407.709 102.145 421.34 87.8352 423.823C73.559 426.299 59.9733 416.747 57.472 402.469C54.9706 388.194 64.4982 374.588 78.7657 372.061Z" fill="#BF935D"/>
<path d="M81.0914 375.048C104.812 372.957 111.535 414.532 86.5373 420.696C61.6685 423.474 54.7501 380.54 81.0914 375.048Z" fill="#1C242B"/>
<path d="M514.192 372.139C528.549 369.855 542.02 379.706 544.197 394.087C546.378 408.468 536.428 421.869 522.036 423.941C507.797 425.991 494.568 416.166 492.413 401.937C490.257 387.705 499.98 374.401 514.192 372.139Z" fill="#BF935D"/>
<path d="M516.164 375.06C539.242 372.574 546.934 415.885 520.86 420.733C494.973 421.676 490.917 379.438 516.164 375.06Z" fill="#1C242B"/>
<path d="M337.975 31.1157L338.811 31.299C339.412 31.9773 339.766 32.645 339.517 33.6182C336.09 46.9554 329.76 56.42 329.875 70.6775C341.051 77.3832 353.918 86.7473 355.38 100.452C355.84 104.74 356.332 110.217 358.599 113.749C362.764 120.08 369.43 124.557 374.95 129.64C380.089 134.37 374.776 140.491 371.063 144.107C371.125 145.449 371.125 146.793 371.069 148.136C370.695 155.888 366.503 157.836 362.689 162.739C360.976 164.944 361.884 167.527 357.365 171.324C348.018 179.178 339.066 175.398 328.438 174.718C311.506 183.011 315.138 207.826 323.807 221.018C326.547 225.187 330.933 232.367 332.793 236.663C330.211 234.453 328.04 231.727 325.689 229.302C312.352 215.537 303.179 197.419 315.788 179.228C325.328 167.291 330.902 173.305 343.803 171.816C350.382 171.057 355.629 168.071 357.937 161.575L356.282 161.835C353.803 162.22 345.287 163.582 343.43 162.225C344.789 161.872 346.239 161.891 347.682 161.561C357.433 159.332 371.635 151.942 368.593 139.792C366.976 138.01 364.021 136.197 364.823 133.454C366.008 131.791 367.501 131.642 369.445 131.19C361.99 124.957 352.749 118.334 350.774 108.492C350.124 105.243 349.368 98.2226 348.226 95.7232C340.609 79.078 318.031 69.4335 303.07 62.4257L302.996 62.0924C307.885 60.5806 317.879 64.8893 322.69 66.8062C324.199 56.2314 326.56 50.3297 331.368 40.7462C324.603 44.3418 318.501 47.8913 312.672 52.9088C311.16 54.2087 309.468 55.6776 307.851 56.8183L307.608 56.9869C314.725 46.1461 326.373 36.7057 337.975 31.1157Z" fill="#BF935D"/>
<path d="M220.389 277.098C228.329 276.118 240.338 277.337 248.133 278.832C278.561 284.669 306.974 297.723 334.958 310.57C350.102 317.524 365.99 323.324 382.176 327.282C382.777 327.428 382.64 327.397 382.904 327.904L382.422 328.287C367.732 329.964 344.513 322.235 330.927 316.482C323.3 313.286 315.941 309.892 308.408 306.519C283.944 295.561 258 286.83 231.016 285.698C224.344 285.418 217.66 285.621 211.017 286.308C202.004 287.232 168.475 293.562 162.212 290.761L162.103 290.271C162.445 289.977 162.774 289.714 163.233 289.628C177.578 286.931 191.317 281.912 205.612 279.006C210.502 278.012 215.433 277.541 220.389 277.098Z" fill="#BF935D"/>
<path d="M453.188 372.024C454.551 373.321 457.667 381.203 458.597 383.396L467.334 403.605C469.446 408.53 472.056 415.453 474.979 419.722C477.185 419.912 478.597 419.884 480.777 419.818C480.815 421.975 480.961 427.852 480.625 429.747L480.261 429.843C478.516 428.415 477.123 423.409 474.603 423.169C467.325 422.485 459.683 422.712 452.345 422.731C447.77 422.728 434.971 422.158 430.61 423.652C429.31 424.097 426.511 429.339 425.488 429.896C424.831 428.44 425.145 421.844 425.192 419.787L430.772 419.893C434.564 415.217 437.92 406.309 440.511 400.549C444.778 391.069 448.747 381.455 453.188 372.024Z" fill="#BF935D"/>
<path d="M451.167 383.897C452.237 384.566 465.306 415.668 466.905 419.513C463.876 420.052 455.403 419.834 451.982 419.815C446.557 419.837 441.133 419.803 435.711 419.706C440.915 407.771 445.876 395.792 451.167 383.897Z" fill="#1C242B"/>
<path d="M179.556 373.181L193.648 373.116C192.985 373.663 190.954 375.291 190.501 375.91C189.347 377.929 189.517 382.301 189.621 384.687C190.113 395.91 188.818 408.648 189.886 419.675L193.566 422.864L127.147 422.883C128.355 421.925 129.476 420.942 130.639 419.93C130.971 415.226 130.765 408.116 130.76 403.266C130.786 394.367 130.745 385.468 130.637 376.57C129.692 375.645 128.185 374.345 127.679 373.206L140.482 373.144L137.511 376.386C137.137 384.273 137.465 393.34 137.373 401.34C137.321 405.948 137.164 415.503 137.702 419.681C140.798 419.896 153.082 420.313 155.537 419.383C157.099 417.531 156.622 405.204 156.624 402.376L156.566 376.675C155.516 375.527 153.781 374.155 152.552 373.122C157.371 373.228 162.191 373.228 167.01 373.125L163.576 376.458C162.975 389.174 163.821 402.727 163.522 415.503C163.44 418.997 164.726 419.896 168.077 419.915C172.9 419.943 177.773 419.846 182.62 419.775C182.908 415.248 182.783 410.17 182.762 405.596L182.777 376.563L179.556 373.181Z" fill="#BF935D"/>
<path d="M495.446 294.635C473.387 302.997 442.744 301.544 424.044 285.958C412.651 276.843 409.186 258.94 419.398 247.569C428.862 237.034 443.086 236.337 453.546 245.627C453.182 247.192 453.481 246.902 452.458 247.916C447.039 244.946 441.531 243.723 435.444 245.467C430.355 246.939 426.069 250.389 423.544 255.047C421.052 259.67 420.726 265.363 422.244 270.328C425.833 282.096 439.671 288.575 450.619 291.551C454.003 292.306 457.179 292.52 460.09 293.139C469.089 293.91 475.844 293.932 484.709 292.765C493.405 291.453 501.925 289.153 510.102 285.91C512.867 284.832 515.958 283.238 518.531 282.284C515.486 284.734 504.279 292.077 500.438 292.753C498.883 293.407 497.054 294.247 495.446 294.635Z" fill="#BF935D"/>
<path d="M561.183 373.156L570.442 373.085C575.857 384.793 581.406 396.436 587.092 408.014C592.05 396.52 598.233 385.005 603.288 373.163C606.302 373.24 609.126 373.184 612.143 373.116C610.93 374.124 609.757 375.21 608.588 376.271C608.398 381.859 608.541 388.318 608.535 393.965C608.482 402.606 608.494 411.246 608.572 419.89L612.46 422.908C607.717 422.836 602.973 422.821 598.23 422.858C599.739 421.604 600.491 420.879 601.826 419.439C602.339 413.58 601.953 401.156 601.932 394.759C601.848 391.078 601.978 387.307 602.065 383.62C599.894 387.677 598.156 392.236 595.997 396.364C592.034 403.947 588.943 412.068 585.067 419.685C584.355 417.429 581.021 410.668 579.885 408.247C576.063 399.989 572.134 391.781 568.097 383.626C568.645 395.54 567.892 407.715 568.483 419.373C569.419 420.372 571.273 421.872 572.368 422.811C568.536 422.74 564.701 422.765 560.869 422.892C562.766 421.38 563.506 420.991 565.043 419.09C565.369 415.033 565.152 407.998 565.155 403.701C565.161 394.852 565.279 385.506 564.928 376.706C564.134 375.714 562.275 374.248 561.183 373.156Z" fill="#BF935D"/>
<path d="M305.795 373.1C310.15 373.212 314.831 373.119 319.207 373.113L315.671 376.523C315.571 378.424 315.596 380.471 315.611 382.382C315.717 394.734 315.338 407.202 315.677 419.545C316.719 420.506 318.038 421.256 318.781 422.438L318.342 422.855L305.186 422.808C306.399 421.67 307.593 420.512 308.769 419.333C309.338 407.889 308.619 395.72 308.946 384.161L291.127 405.54C288.445 408.748 282.778 415.207 280.855 418.502C282.016 420.077 283.598 421.527 285.005 422.905C280.432 422.802 275.856 422.802 271.283 422.905C272.732 421.648 273.488 420.87 274.779 419.436C275.343 406.33 275.047 389.684 274.846 376.473C273.895 375.593 272.313 374.332 271.883 373.206C276.161 373.094 280.856 373.156 285.163 373.138C284.049 374.248 282.82 375.378 281.676 376.467C281.277 387.702 281.608 400.761 281.593 412.167C285.037 407.609 309.011 380.079 308.946 377.721C308.893 375.761 307.077 374.37 305.795 373.1Z" fill="#BF935D"/>
<path d="M225.555 303.551C259.154 302.269 287.813 312.695 318.302 325.244C321.247 326.454 332.553 330.032 334.143 331.476L333.962 331.812C330.644 332.303 320.463 330.278 316.759 329.556C300.999 326.127 286.656 321.112 271.257 316.852C259.486 313.566 247.49 311.149 235.365 309.621C230.019 308.971 224.692 308.601 219.34 308.249C216.626 308.069 206.49 308.227 204.949 307.023L205.035 306.503C207.824 304.593 221.895 303.759 225.555 303.551Z" fill="#BF935D"/>
<path d="M369.85 373.209L383.56 373.113C382.263 374.295 381.262 375.288 380.049 376.557C379.688 382.071 379.903 389.373 379.893 395.008C379.878 403.147 379.76 411.564 379.924 419.672C380.845 420.531 382.276 421.371 382.721 422.438C381.952 423.017 381.657 422.821 380.534 422.83L369.816 422.824C370.988 421.8 372.149 420.761 373.296 419.706C373.632 413.3 373.39 404.681 373.371 398.107C365.175 397.799 356.177 397.998 347.925 398.023C348.022 405.157 347.791 412.379 348 419.476C348.911 420.444 350.631 421.9 351.667 422.833C347.008 422.752 342.115 422.821 337.437 422.824C338.718 421.791 339.984 420.742 341.241 419.678C341.586 415.63 341.384 408.76 341.381 404.495L341.337 376.7C340.292 375.499 338.865 374.569 338.249 373.209C342.522 373.075 347.44 373.159 351.751 373.141C350.479 374.208 349.406 375.257 348.211 376.417C347.81 381.949 347.938 389.597 347.966 395.207C356.429 395.434 364.895 395.431 373.362 395.201V376.638C372.211 375.25 371.203 374.404 369.85 373.209Z" fill="#BF935D"/>
<path d="M0.782564 373.215C5.14536 373.091 9.71988 373.135 14.0994 373.11C12.6998 374.283 12.0391 374.964 10.8037 376.321C10.6999 379.438 10.1265 393.265 11.3794 395.226C12.6669 395.272 14.1315 394.625 15.1414 393.605C20.2406 388.436 25.9142 382.192 30.1362 376.302C30.5051 375.785 30.6724 374.037 30.7334 373.433C34.318 372.976 39.9443 372.976 43.4799 373.623C41.5005 374.64 37.7979 375.397 36.657 376.215C30.6512 380.53 23.6169 389.314 18.6048 394.936C23.1027 397.27 32.7812 410.861 36.216 415.329C39.7042 419.989 40.8933 420.68 46.2618 422.304C43.1135 423.2 36.9177 423.552 34.03 421.847C27.8631 418.203 18.4671 399.476 12.4288 397.64C11.7204 397.422 11.4404 397.634 10.8478 398.001C10.287 399.939 10.646 416.766 10.7451 419.694L14.2351 422.871C9.49046 422.79 4.74469 422.79 0 422.874C1.50712 421.825 2.474 421.016 3.86959 419.812C4.33567 415.145 4.13276 405.297 4.08392 400.381C4.00983 392.923 4.33794 383.729 3.90523 376.43C2.83963 375.216 1.47393 374.569 0.782564 373.215Z" fill="#BF935D"/>
<path d="M212.69 373.191C215.859 372.963 222.586 373.15 226.102 373.128C224.798 374.227 223.702 375.238 222.465 376.414C222.319 378.729 222.184 394.012 222.884 395.142L223.623 395.294C224.592 395.064 225.359 394.669 226.151 394.074C229.145 391.828 241.552 378.128 241.949 374.949C242.025 374.339 242.037 374.127 242.453 373.67C245.001 372.624 251.708 373.166 254.659 373.402C253.037 374.193 248.517 375.854 247.405 376.647C245.082 378.306 230.579 393.527 230.79 395.16C233.028 395.808 235.178 399.355 236.668 401.215C240.336 405.73 243.941 410.294 247.484 414.909C250.98 419.713 252.792 420.621 258.176 422.538C248.719 423.941 245.085 423.02 239.474 415.189C235.675 410.254 232.16 404.996 228.072 400.304C226.109 398.051 225.281 397.936 222.476 397.942C222.377 404.88 222.196 412.998 222.505 419.859C223.716 420.867 225.094 421.9 226.344 422.88L212.25 422.868C213.447 421.878 214.624 420.767 215.774 419.713C215.953 414.199 215.782 407.774 215.774 402.198C215.825 393.673 215.79 385.148 215.671 376.626C214.611 375.555 213.071 374.479 212.69 373.191Z" fill="#BF935D"/>
<path d="M430.713 9.79895L431.139 10.0004C431.587 10.6992 433.559 38.9504 433.774 42.3067C436.209 40.0425 444.128 33.8299 446.837 31.9802C444.212 35.6563 439.133 41.194 436.013 45.1471C441.811 45.0647 455.59 46.8705 461.926 47.551C457.223 48.8472 442.222 49.8762 436.648 50.3721C440.022 54.4577 443.347 58.3346 446.256 62.7755C442.492 60.2055 437.506 56.0035 433.796 53.0433C433.453 57.3479 432.004 79.635 430.953 82.3554L430.489 82.3053L430.343 81.2608C429.593 75.3183 428.222 58.614 428.334 53.136C424.107 56.0592 419.18 60.3053 415.155 62.7929C418.001 59.0766 422.875 53.5131 426.079 50.1076C421.671 50.1316 403.921 48.5902 399.638 47.5566C401.109 47.3509 402.798 47.2224 404.288 47.1107C411.336 46.5818 418.651 45.2 425.696 45.0136C422.58 41.7392 417.783 35.8981 414.965 32.2901C418.309 34.3026 424.86 39.9044 428.076 42.5911L429.562 22.7013C429.793 19.2841 430.066 12.8198 430.713 9.79895Z" fill="#BF935D"/>
<path d="M163.563 260.942C167.614 259.537 171.756 257.622 175.925 256.245C190.097 251.562 206.702 247.647 221.721 248.03L221.431 248.101C218.375 248.828 212.992 248.115 211.567 249.852C211.516 250.779 211.844 251.119 212.337 251.965L212.631 252.148L215.974 251.267C214.003 252.143 212.88 253.411 211.431 254.965C213.796 255.11 219.815 254.97 221.502 255.432C211.318 255.442 203.083 255.892 192.994 257.849C179.607 260.446 167.807 265.34 154.917 269.479C154.409 267.639 150.557 266.09 148.813 266.305L151.054 265.437C155.189 263.907 159.377 262.306 163.563 260.942Z" fill="#BF935D"/>
<path d="M151.055 265.437C155.189 263.907 159.377 262.306 163.563 260.942C163.031 262.382 162.693 262.733 161.761 263.939C158.855 265.112 155.8 266.206 152.597 265.557C151.993 265.435 151.659 265.438 151.055 265.437Z" fill="#956E44"/>
<path d="M300.865 137.085C311.049 136.302 324.946 138.243 334.295 142.455C333.008 142.37 331.418 142.129 330.121 141.93C319.123 140.24 308.52 140.3 297.45 140.731C285.614 141.38 278.182 143.355 266.966 146.134C277.365 140.462 289.229 138.207 300.865 137.085Z" fill="#BF935D"/>
<path d="M323.524 102.548C335.147 101.131 336.276 107.986 338.889 116.822C336.986 115.974 335.829 115.513 333.844 114.893C325.552 112.822 325.617 109.903 319.157 105.28C318.544 104.841 315.568 103.666 314.688 103.316L323.524 102.548Z" fill="#BF935D"/>
<path d="M278.737 175.034C279.051 174.632 279.384 174.245 279.735 173.876C290.657 162.414 310.79 153.609 326.728 153.167C327.639 153.884 328.106 153.784 329.275 153.837C312.542 156.522 292.939 166.148 278.737 175.034Z" fill="#BF935D"/>
<path d="M451.058 316.108C453.652 315.847 462.491 314.431 463.956 314.487L463.997 314.671L463.378 314.456L463.524 314.945C459.851 316.351 452.075 318.579 448.168 318.993C444.237 319.858 432.193 320.66 427.973 320.483C429.117 320.29 429.882 320.315 430.641 319.491C431.354 317.658 429.864 316.532 428.256 315.853C436.993 316.6 442.336 316.606 451.058 316.108Z" fill="#BF935D"/>
<path d="M451.058 316.108C453.652 315.847 462.491 314.431 463.956 314.487L463.997 314.671L463.378 314.456L463.524 314.945C459.851 316.351 452.075 318.579 448.168 318.993C446.355 318.42 444.61 318.672 442.65 318.576L444.075 318.414C444.041 318.47 450.159 316.501 451.058 316.108Z" fill="#BF935D"/>
<path d="M141.994 273.097C136.09 274.783 111.399 277.419 106.273 275.491L106.236 275.13C106.919 274.733 113.581 274.497 115.006 274.36C122.185 273.665 128.973 272.149 135.957 270.466L136.318 271.285C138.814 272.018 140.217 271.363 141.994 273.097Z" fill="#BB8F57"/>
<path d="M296.572 149.77C307.605 146.382 322.242 144.952 333.629 147.488C321.95 148.738 311.033 148.633 299.011 151.084C297.369 150.926 297.334 151.138 296.572 149.77Z" fill="#BF935D"/>
<path d="M148.814 266.305C150.557 266.09 154.409 267.639 154.917 269.479C150.428 270.952 146.596 271.997 141.994 273.097C140.217 271.363 138.814 272.018 136.318 271.285L135.957 270.466C139.359 269.62 145.505 267.478 148.814 266.305Z" fill="#BF935D"/>
<path d="M285.107 154.033C288.183 152.382 293.182 150.597 296.572 149.77C297.335 151.138 297.369 150.926 299.012 151.084C294.356 151.967 289.72 152.95 285.107 154.033Z" fill="#956E44"/>
<path d="M453.546 245.627C456.243 248.529 457.515 250.3 459.157 253.909C456.744 251.529 455.076 250.063 452.458 247.916C453.481 246.902 453.182 247.192 453.546 245.627Z" fill="#BF935D"/>
<path d="M326.728 153.167C328.507 152.956 329.518 152.731 331.244 153.151L331.107 153.476C330.432 153.644 329.981 153.772 329.275 153.836C328.106 153.784 327.639 153.884 326.728 153.167Z" fill="#BF935D"/>
</svg>
