<svg width="413" height="332" viewBox="0 0 413 332" fill="none" xmlns="http://www.w3.org/2000/svg">
<path d="M115.485 248.03C138.464 247.769 161.062 254.426 182.295 262.727C188.805 265.05 195.814 268.631 202.408 270.385C204.62 270.973 213.876 269.205 216.355 268.641C238.992 263.491 254.961 247.005 271.498 232.039C285.339 219.516 303.622 211.577 322.499 214.146C339.674 216.328 356.933 228.283 357.111 247.185C357.148 251.469 356.237 255.828 353.976 259.488C354 249.144 352.884 241.225 345.161 233.38C338.023 226.13 327.133 222.068 317.025 222.143C288.493 222.353 274.634 241.893 255.013 257.746C248.121 263.373 240.491 268.027 232.336 271.577C227.173 273.8 220.37 275.966 214.769 276.553C246.289 291.376 287.573 312.692 322.02 315.853C323.628 316.532 325.118 317.658 324.405 319.491C323.647 320.315 322.881 320.29 321.737 320.483C315.541 320.95 304.913 319.494 298.807 318.333C234.868 306.174 181.389 259.269 115.266 255.432C113.579 254.97 107.559 255.11 105.195 254.966C106.644 253.411 107.767 252.143 109.738 251.267L106.395 252.148L106.101 251.965C105.608 251.119 105.28 250.779 105.331 249.852C106.756 248.115 112.139 248.828 115.195 248.101L115.485 248.03Z" fill="#BF935D"/>
<path d="M192.595 0C193.127 0.162976 193.609 0.741732 193.789 1.25751C200.834 21.2168 198.505 41.5605 192.237 61.2919C190.415 60.4133 188.049 59.7194 186.096 59.0803C190.97 43.1962 192.741 26.8665 189.79 10.3959C168.663 21.9794 153.338 48.1023 147.283 70.69C145.426 77.617 144.201 85.4525 143.212 92.5922C139.759 86.4431 139.238 80.0824 139.239 73.2572C118.991 91.1501 112.359 119.879 109.983 145.577C108.822 158.128 107.71 172.739 104.317 184.672C100.406 198.557 93.0761 211.239 82.9983 221.557C82.4144 222.156 81.8201 222.745 81.2151 223.322C68.7037 235.384 52.5824 243.008 35.324 245.024C32.3269 245.392 28.9655 245.81 25.9575 245.738C28.8573 244.558 33.7418 243.436 37.0484 242.338C46.4295 239.249 55.2505 234.664 63.1698 228.761C83.8147 213.4 95.2506 190.934 98.6912 165.736C100.253 154.296 100.681 142.828 102.441 131.356C105.851 109.143 113.974 86.734 130.095 70.5397C134.084 66.5325 137.137 64.2316 141.683 60.8735C143.891 55.6992 144.98 51.089 147.798 45.489C158.463 24.2974 172.719 11.7027 192.595 0Z" fill="#BF935D"/>
<path d="M231.738 31.1157L232.575 31.299C233.175 31.9773 233.53 32.645 233.281 33.6182C229.853 46.9554 223.524 56.42 223.639 70.6775C234.814 77.3832 247.682 86.7473 249.144 100.452C249.604 104.74 250.096 110.217 252.363 113.749C256.528 120.08 263.193 124.557 268.714 129.64C273.852 134.37 268.54 140.491 264.826 144.107C264.888 145.449 264.888 146.793 264.832 148.136C264.459 155.888 260.266 157.836 256.453 162.739C254.739 164.944 255.648 167.527 251.128 171.324C241.782 179.178 232.83 175.398 222.202 174.718C205.269 183.011 208.902 207.826 217.571 221.018C220.311 225.187 224.696 232.367 226.556 236.663C223.975 234.453 221.804 231.727 219.452 229.302C206.115 215.537 196.943 197.419 209.552 179.228C219.092 167.291 224.665 173.305 237.567 171.816C244.145 171.057 249.393 168.071 251.701 161.575L250.046 161.835C247.567 162.22 239.051 163.582 237.194 162.225C238.553 161.872 240.002 161.891 241.446 161.561C251.197 159.332 265.399 151.942 262.357 139.792C260.739 138.01 257.784 136.197 258.587 133.454C259.772 131.791 261.265 131.642 263.209 131.19C255.753 124.957 246.512 118.334 244.537 108.492C243.887 105.243 243.132 98.2226 241.99 95.7232C234.373 79.078 211.795 69.4335 196.834 62.4257L196.759 62.0924C201.649 60.5806 211.642 64.8893 216.454 66.8062C217.963 56.2314 220.323 50.3297 225.132 40.7462C218.367 44.3418 212.264 47.8913 206.436 52.9088C204.924 54.2087 203.232 55.6776 201.615 56.8183L201.372 56.9869C208.488 46.1461 220.137 36.7057 231.738 31.1157Z" fill="#BF935D"/>
<path d="M114.153 277.098C122.093 276.118 134.101 277.337 141.897 278.832C172.325 284.669 200.738 297.723 228.722 310.57C243.866 317.524 259.754 323.324 275.94 327.282C276.54 327.428 276.403 327.397 276.668 327.904L276.186 328.287C261.495 329.964 238.277 322.235 224.691 316.482C217.064 313.286 209.705 309.892 202.172 306.519C177.707 295.561 151.764 286.83 124.779 285.698C118.107 285.418 111.423 285.621 104.781 286.308C95.7682 287.232 62.2389 293.562 55.9753 290.761L55.8667 290.271C56.2088 289.977 56.5379 289.714 56.9964 289.628C71.3419 286.931 85.0804 281.912 99.3759 279.006C104.266 278.012 109.197 277.541 114.153 277.098Z" fill="#BF935D"/>
<path d="M389.209 294.635C367.151 302.997 336.508 301.544 317.808 285.958C306.415 276.843 302.95 258.94 313.161 247.569C322.626 237.034 336.85 236.337 347.31 245.627C346.946 247.192 347.244 246.902 346.221 247.916C340.803 244.946 335.295 243.723 329.208 245.467C324.119 246.939 319.833 250.389 317.307 255.047C314.816 259.67 314.489 265.363 316.007 270.328C319.597 282.096 333.435 288.575 344.383 291.551C347.767 292.306 350.943 292.52 353.854 293.139C362.852 293.91 369.608 293.932 378.472 292.765C387.169 291.453 395.688 289.153 403.865 285.91C406.63 284.832 409.722 283.238 412.294 282.284C409.249 284.734 398.043 292.077 394.201 292.753C392.646 293.407 390.817 294.247 389.209 294.635Z" fill="#BF935D"/>
<path d="M119.319 303.551C152.918 302.269 181.577 312.695 212.065 325.244C215.011 326.454 226.317 330.032 227.906 331.476L227.726 331.812C224.407 332.303 214.227 330.278 210.523 329.556C194.763 326.127 180.419 321.112 165.02 316.852C153.25 313.566 141.253 311.149 129.128 309.621C123.783 308.971 118.456 308.601 113.104 308.249C110.389 308.069 100.253 308.227 98.7124 307.023L98.7986 306.503C101.588 304.593 115.659 303.759 119.319 303.551Z" fill="#BF935D"/>
<path d="M324.477 9.79895L324.903 10.0004C325.351 10.6992 327.323 38.9504 327.537 42.3067C329.973 40.0425 337.892 33.8299 340.601 31.9802C337.976 35.6563 332.897 41.194 329.777 45.1471C335.575 45.0647 349.353 46.8705 355.689 47.551C350.986 48.8472 335.985 49.8762 330.411 50.3721C333.786 54.4577 337.111 58.3346 340.019 62.7755C336.256 60.2055 331.27 56.0035 327.559 53.0433C327.217 57.3479 325.768 79.635 324.716 82.3554L324.253 82.3053L324.107 81.2608C323.357 75.3183 321.986 58.614 322.097 53.136C317.871 56.0592 312.944 60.3053 308.919 62.7929C311.765 59.0766 316.639 53.5131 319.842 50.1076C315.435 50.1316 297.684 48.5902 293.401 47.5566C294.873 47.3509 296.561 47.2224 298.051 47.1107C305.099 46.5818 312.415 45.2 319.46 45.0136C316.343 41.7392 311.547 35.8981 308.729 32.2901C312.073 34.3026 318.623 39.9044 321.839 42.5911L323.326 22.7013C323.556 19.2841 323.83 12.8198 324.477 9.79895Z" fill="#BF935D"/>
<path d="M57.3268 260.942C61.3777 259.537 65.52 257.622 69.6882 256.245C83.8605 251.562 100.465 247.647 115.485 248.03L115.195 248.101C112.138 248.828 106.756 248.115 105.331 249.852C105.279 250.779 105.607 251.119 106.1 251.965L106.394 252.148L109.738 251.267C107.767 252.143 106.644 253.411 105.195 254.965C107.559 255.11 113.579 254.97 115.265 255.432C105.082 255.442 96.8463 255.892 86.7578 257.849C73.3709 260.446 61.5702 265.34 48.6806 269.479C48.173 267.639 44.3208 266.09 42.5771 266.305L44.8182 265.437C48.9524 263.907 53.1405 262.306 57.3268 260.942Z" fill="#BF935D"/>
<path d="M44.8184 265.437C48.9526 263.907 53.1407 262.306 57.327 260.942C56.7945 262.382 56.4564 262.733 55.5248 263.939C52.6185 265.112 49.5638 266.206 46.3605 265.557C45.7564 265.435 45.423 265.438 44.8184 265.437Z" fill="#956E44"/>
<path d="M194.629 137.085C204.812 136.302 218.709 138.243 228.059 142.455C226.771 142.37 225.182 142.129 223.885 141.93C212.887 140.24 202.283 140.3 191.214 140.731C179.378 141.38 171.945 143.355 160.729 146.134C171.128 140.462 182.993 138.207 194.629 137.085Z" fill="#BF935D"/>
<path d="M217.288 102.548C228.911 101.131 230.04 107.986 232.653 116.822C230.749 115.974 229.592 115.513 227.608 114.893C219.316 112.822 219.381 109.903 212.921 105.28C212.308 104.841 209.331 103.666 208.451 103.316L217.288 102.548Z" fill="#BF935D"/>
<path d="M172.501 175.034C172.814 174.632 173.147 174.245 173.499 173.876C184.421 162.414 204.554 153.609 220.492 153.167C221.403 153.884 221.869 153.784 223.039 153.837C206.305 156.522 186.703 166.148 172.501 175.034Z" fill="#BF935D"/>
<path d="M344.821 316.108C347.415 315.847 356.255 314.431 357.72 314.487L357.76 314.671L357.141 314.456L357.288 314.945C353.614 316.351 345.838 318.579 341.932 318.993C338 319.858 325.957 320.66 321.736 320.483C322.881 320.29 323.646 320.315 324.405 319.491C325.117 317.658 323.627 316.532 322.019 315.853C330.756 316.6 336.1 316.606 344.821 316.108Z" fill="#BF935D"/>
<path d="M344.821 316.108C347.415 315.847 356.255 314.431 357.72 314.487L357.76 314.671L357.141 314.456L357.288 314.945C353.614 316.351 345.838 318.579 341.932 318.993C340.118 318.42 338.374 318.672 336.414 318.576L337.839 318.414C337.804 318.47 343.922 316.501 344.821 316.108Z" fill="#BF935D"/>
<path d="M35.7578 273.097C29.8541 274.783 5.16256 277.419 0.0363925 275.491L0 275.13C0.683033 274.733 7.34447 274.497 8.76994 274.36C15.9489 273.665 22.7367 272.149 29.7206 270.466L30.0821 271.285C32.5775 272.018 33.9803 271.363 35.7578 273.097Z" fill="#BB8F57"/>
<path d="M190.335 149.77C201.369 146.382 216.006 144.952 227.393 147.488C215.714 148.738 204.796 148.633 192.775 151.084C191.132 150.926 191.098 151.138 190.335 149.77Z" fill="#BF935D"/>
<path d="M42.5773 266.305C44.321 266.09 48.1732 267.639 48.6808 269.479C44.1913 270.952 40.36 271.997 35.7579 273.097C33.9803 271.363 32.5776 272.018 30.0821 271.285L29.7207 270.466C33.1231 269.62 39.2692 267.478 42.5773 266.305Z" fill="#BF935D"/>
<path d="M178.871 154.033C181.947 152.382 186.946 150.597 190.336 149.77C191.099 151.138 191.133 150.926 192.775 151.084C188.12 151.967 183.484 152.95 178.871 154.033Z" fill="#956E44"/>
<path d="M347.31 245.627C350.006 248.529 351.279 250.3 352.921 253.909C350.507 251.529 348.84 250.063 346.221 247.916C347.244 246.902 346.946 247.192 347.31 245.627Z" fill="#BF935D"/>
<path d="M220.492 153.167C222.271 152.956 223.282 152.731 225.008 153.151L224.871 153.476C224.196 153.644 223.745 153.772 223.039 153.836C221.87 153.784 221.403 153.884 220.492 153.167Z" fill="#BF935D"/>
</svg>
